# xmcd
#
# Track frame offsets:
#	225
#	12255
#	29596
#	45538
#	59785
#	80702
#	92982
#	104915
#	118923
#	134688
#	150456
#	166863
#	180139
#	192352
#
# Disc length: 2723 seconds
#
# Revision: 0
# Processed by: cddbd v1.5.2PL0 Copyright (c) Steve Scherf et al.
# Submitted via: EasyCDDAExtractor 15.2.5.1
#
DISCID=c60aa00e
DTITLE=Klíc - Větrné mlýny
DYEAR=1900
DGENRE=
TTITLE0=Šejdíři
TTITLE1=Běda poraženým
TTITLE2=Lidská komedie
TTITLE3=Jen jednu noc
TTITLE4=Tam v bílé pláni
TTITLE5=Poslední šanson
TTITLE6=Hádě
TTITLE7=Ctihodní
TTITLE8=Balada o věčné lásce
TTITLE9=Nářek
TTITLE10=Křížový král
TTITLE11=Promoklas
TTITLE12=Dál plyne čas
TTITLE13=Don Quijote
EXTD=
EXTT0=
EXTT1=
EXTT2=
EXTT3=
EXTT4=
EXTT5=
EXTT6=
EXTT7=
EXTT8=
EXTT9=
EXTT10=
EXTT11=
EXTT12=
EXTT13=
PLAYORDER=
